<?xml version="1.0" encoding="utf-8"?>
<!-- Generator: Adobe Illustrator 19.1.0, SVG Export Plug-In . SVG Version: 6.00 Build 0)  -->
<svg version="1.1" id="Layer_1" xmlns="http://www.w3.org/2000/svg" xmlns:xlink="http://www.w3.org/1999/xlink" x="0px" y="0px"
	 viewBox="0 0 76.6 24.9" style="enable-background:new 0 0 76.6 24.9;" xml:space="preserve">
<style type="text/css">
	.st0{clip-path:url(#SVGID_2_);fill:#241F21;}
	.st1{fill:#241F21;}
	.st2{clip-path:url(#SVGID_4_);fill:#241F21;}
</style>
<g>
	<defs>
		<rect id="SVGID_1_" y="0" width="76.6" height="24.9"/>
	</defs>
	<clipPath id="SVGID_2_">
		<use xlink:href="#SVGID_1_"  style="overflow:visible;"/>
	</clipPath>
	<path class="st0" d="M9.6,4.6c2.3,0,3.8,0.7,4.6,2c0.8,1.3,1.2,3.2,1.2,5.7c0,1.8-0.3,3.3-0.8,4.6c-0.9,2.4-2.6,3.5-5,3.5H4.9V4.6
		H9.6z M10.4,0.4H0v24.2h10.4c3.7,0,6.4-1.5,8.1-4.5c1.3-2.2,1.9-5,1.9-8.2c0-1.3-0.2-2.6-0.5-4c-0.3-1.4-0.9-2.7-1.7-3.9
		c-1.1-1.5-2.4-2.5-4.1-3.1C13.2,0.6,11.9,0.4,10.4,0.4"/>
</g>
<rect x="48.5" y="0.4" class="st1" width="5" height="24.2"/>
<g>
	<defs>
		<rect id="SVGID_3_" y="0" width="76.6" height="24.9"/>
	</defs>
	<clipPath id="SVGID_4_">
		<use xlink:href="#SVGID_3_"  style="overflow:visible;"/>
	</clipPath>
	<path class="st2" d="M57,17.1c0,2.5,0.9,4.4,2.7,5.8c1.8,1.4,4.2,2.1,7.4,2.1c3.1,0,5.4-0.7,7.1-2.1c1.7-1.4,2.5-3.2,2.5-5.4
		c0-2.1-0.7-3.7-2.1-4.8c-0.9-0.7-2.3-1.3-4.1-1.7l-4.2-1c-1.6-0.4-2.7-0.7-3.1-1C62.4,8.5,62,7.9,62,7c0-0.9,0.4-1.6,1.2-2.2
		c0.8-0.5,1.8-0.8,3.1-0.8c1.2,0,2.2,0.2,3,0.6c1.2,0.6,1.8,1.6,1.9,3h4.8c-0.1-2.5-1-4.4-2.8-5.8c-1.8-1.3-3.9-2-6.5-2
		c-3,0-5.3,0.7-6.9,2.1c-1.6,1.4-2.3,3.2-2.3,5.3c0,2.3,0.8,4,2.4,5.1c0.9,0.7,2.7,1.3,5.2,1.8l2.6,0.6c1.5,0.3,2.6,0.7,3.3,1.1
		c0.7,0.4,1,1,1,1.8c0,1.3-0.7,2.3-2.1,2.8C69,20.8,68.1,21,66.9,21c-2,0-3.4-0.5-4.2-1.5c-0.4-0.5-0.8-1.3-0.9-2.4H57z"/>
</g>
<path class="st1" d="M20.4,24.6h12.3l-6.1-12.3L20.4,24.6z M32.7,24.6H45l-6.1-12.3L32.7,24.6z M32.7,0l-6.1,12.3h12.3L32.7,0z"/>
</svg>
